<svg width="326" height="200" viewBox="0 0 326 200" fill="none" xmlns="http://www.w3.org/2000/svg">
<g filter="url(#filter0_b_1_3249)">
<path d="M1 70.5C1 70.5 55.5 32.3421 67.5 31.5C78.5 30.7282 154 85.5 154 85.5C154 85.5 218.5 2.49993 235 0.999966C251.5 -0.5 325 49 325 49V199H1V70.5Z" fill="white" fill-opacity="0.49"/>
<path d="M1 70.5C1 70.5 55.5 32.3421 67.5 31.5C78.5 30.7282 154 85.5 154 85.5C154 85.5 218.5 2.49993 235 0.999966C251.5 -0.5 325 49 325 49V199H1V70.5Z" stroke="white" stroke-opacity="0.86"/>
</g>
<defs>
<filter id="filter0_b_1_3249" x="-39.1" y="-39.1334" width="404.2" height="278.233" filterUnits="userSpaceOnUse" color-interpolation-filters="sRGB">
<feFlood flood-opacity="0" result="BackgroundImageFix"/>
<feGaussianBlur in="BackgroundImageFix" stdDeviation="19.8"/>
<feComposite in2="SourceAlpha" operator="in" result="effect1_backgroundBlur_1_3249"/>
<feBlend mode="normal" in="SourceGraphic" in2="effect1_backgroundBlur_1_3249" result="shape"/>
</filter>
</defs>
</svg>
