<svg width="26" height="26" viewBox="0 0 26 26" fill="none" xmlns="http://www.w3.org/2000/svg">
<path d="M16.0269 18.4628H19.1184C21.4016 18.4628 23.2526 16.6118 23.2526 14.3286C23.2526 12.3895 21.9176 10.7622 20.1165 10.3157C20.1399 10.1062 20.1519 9.8933 20.1519 9.67759C20.1519 6.53811 17.6069 3.99306 14.4674 3.99306C11.8634 3.99306 9.66838 5.74393 8.99532 8.13263C8.92494 8.12907 8.85411 8.12726 8.78285 8.12726C6.49959 8.12726 4.64865 9.97821 4.64865 12.2615C4.64865 12.3201 4.64987 12.3785 4.65229 12.4366C3.4461 12.8612 2.58154 14.0107 2.58154 15.3621C2.58154 17.0746 3.96975 18.4628 5.6822 18.4628H8.62601L13.0532 10.7151C13.5791 9.79491 14.9842 10.168 14.9842 11.2279V15.3621H16.0177C16.8113 15.3621 17.3088 16.2194 16.9151 16.9085L16.0269 18.4628Z" fill="white" fill-opacity="0.6"/>
<path d="M9.8164 18.4628L13.9506 11.2279V16.3957H16.0177L11.8835 23.6305V18.4628H9.8164Z" fill="white" fill-opacity="0.6"/>
</svg>
